<svg width="920" height="760" viewBox="0 0 920 760" fill="none" xmlns="http://www.w3.org/2000/svg">
<defs>
 <linearGradient id="skin1" x1="0" y1="0" x2="0" y2="1"><stop stop-color="#B98C63"/><stop offset="1" stop-color="#6E4933"/></linearGradient>
 <linearGradient id="skin2" x1="0" y1="0" x2="0" y2="1"><stop stop-color="#D4A27A"/><stop offset="1" stop-color="#80543E"/></linearGradient>
 <linearGradient id="gold" x1="0" y1="0" x2="1" y2="1"><stop stop-color="#F3D38B"/><stop offset="1" stop-color="#9C702B"/></linearGradient>
 <filter id="shadow"><feDropShadow dx="0" dy="20" stdDeviation="18" flood-opacity=".55"/></filter>
</defs>
<g filter="url(#shadow)">
 <!-- Male athlete -->
 <g transform="translate(65 28)">
  <ellipse cx="292" cy="115" rx="65" ry="78" fill="url(#skin1)"/>
  <path d="M235 92c14-66 107-75 124-3-29-30-85-30-124 3Z" fill="#111"/>
  <path d="M231 164c-32 33-67 83-75 147l-17 144 75 6 21-149 25 156h70l25-156 21 149 75-6-17-144c-8-64-42-114-75-147-56 42-112 41-128 0Z" fill="url(#skin1)"/>
  <path d="M231 164c23 34 104 34 128 0 30 37 48 77 54 126-79 30-157 30-236 0 7-49 25-89 54-126Z" fill="#181818"/>
  <path d="M201 300c43 23 151 23 194 0l-12 115H213l-12-115Z" fill="#0E0E0E"/>
  <path d="M215 405h73l-13 244-91 10 31-254ZM381 405h-73l13 244 91 10-31-254Z" fill="#151515"/>
  <path d="M183 649h93l-7 41h-109l23-41ZM413 649h-93l7 41h109l-23-41Z" fill="#080808"/>
  <path d="M176 293c-53 12-84 61-93 126l-19 125 63 12 42-137 39-98-32-28ZM414 293c53 12 84 61 93 126l19 125-63 12-42-137-39-98 32-28Z" fill="url(#skin1)"/>
  <path d="M65 544c-9 21 5 48 29 52 25 4 45-17 38-40l-67-12ZM525 544c9 21-5 48-29 52-25 4-45-17-38-40l67-12Z" fill="url(#skin1)"/>
  <path d="M245 221c17 45 82 45 99 0" stroke="url(#gold)" stroke-width="5" opacity=".8"/>
 </g>
 <!-- Female athlete -->
 <g transform="translate(450 52)">
  <ellipse cx="205" cy="105" rx="55" ry="68" fill="url(#skin2)"/>
  <path d="M151 102c-7-80 110-94 117-10 10 30 5 70-12 91l-20-42c19-22 18-55 3-77-26-20-64-13-83 12-8 10-10 18-5 26Z" fill="#17120f"/>
  <path d="M163 161c-29 33-54 80-58 134l-10 118 61 5 19-126 23 137h52l23-137 19 126 61-5-10-118c-5-54-29-101-58-134-31 25-87 27-122 0Z" fill="url(#skin2)"/>
  <path d="M162 161c28 32 95 32 123 0 27 31 43 67 50 112-72 26-145 26-217 0 6-45 23-81 44-112Z" fill="#1B1B1B"/>
  <path d="M128 278c49 18 141 18 191 0l-8 88H136l-8-88Z" fill="#0C0C0C"/>
  <path d="M137 355h72l-15 266-77 8 20-274ZM310 355h-72l15 266 77 8-20-274Z" fill="#171717"/>
  <path d="M116 619h79l-5 38h-91l17-38ZM331 619h-79l5 38h91l-17-38Z" fill="#080808"/>
  <path d="M110 273c-42 17-64 58-69 112L30 489l51 7 31-107 24-91-26-25ZM338 273c42 17 64 58 69 112l11 104-51 7-31-107-24-91 26-25Z" fill="url(#skin2)"/>
  <path d="M30 489c-5 19 8 39 28 41 20 1 35-17 27-35l-55-6ZM418 489c5 19-8 39-28 41-20 1-35-17-27-35l55-6Z" fill="url(#skin2)"/>
  <path d="M183 215c19 25 63 25 82 0" stroke="url(#gold)" stroke-width="4" opacity=".8"/>
 </g>
</g>
</svg>