<svg xmlns="http://www.w3.org/2000/svg" width="900" height="700" viewBox="0 0 900 700">
<defs><linearGradient id="g1" x1="0" y1="0" x2="0" y2="1"><stop stop-color="#d1a178"/><stop offset="1" stop-color="#795039"/></linearGradient><linearGradient id="g2" x1="0" y1="0" x2="0" y2="1"><stop stop-color="#e0b28b"/><stop offset="1" stop-color="#835943"/></linearGradient><filter id="s"><feDropShadow dy="22" stdDeviation="18" flood-opacity=".55"/></filter></defs>
<g filter="url(#s)">
<g transform="translate(80 20)"><ellipse cx="245" cy="100" rx="55" ry="67" fill="url(#g1)"/><path d="M190 92c10-65 103-72 112-4-29-24-76-24-112 4" fill="#161616"/><path d="M180 155c-40 38-67 93-72 155l-16 181 65 5 34-174 25 198h58l26-198 34 174 65-5-16-181c-5-62-32-117-72-155-36 31-95 31-131 0" fill="url(#g1)"/><path d="M180 155c31 42 100 42 131 0 40 39 58 83 64 136-90 26-180 26-269 0 5-53 34-97 74-136" fill="#17191c"/><path d="M120 294h251l-15 137H135l-15-137" fill="#0c0d0f"/><path d="M138 420h91l-21 226-95 8 25-234M351 420h-91l21 226 95 8-25-234" fill="#14161a"/></g>
<g transform="translate(470 45)"><ellipse cx="185" cy="92" rx="48" ry="60" fill="url(#g2)"/><path d="M138 85c1-67 97-73 101-5 7 26 4 51-8 75l-18-32c18-22 15-55-3-74-30-15-62 1-72 36" fill="#17120f"/><path d="M142 145c-31 35-51 81-55 132l-11 154 56 6 26-144 18 164h49l18-164 26 144 56-6-11-154c-4-51-24-97-55-132-30 27-87 28-117 0" fill="url(#g2)"/><path d="M142 145c27 33 90 33 117 0 31 33 46 71 52 117-74 24-148 24-222 0 6-46 22-84 53-117" fill="#191b1e"/><path d="M92 263h219l-11 111H103L92 263" fill="#0d0e10"/><path d="M105 365h76l-14 244-80 8 18-252M298 365h-76l14 244 80 8-18-252" fill="#15171b"/></g></g></svg>